<svg width="86" height="43" viewBox="0 0 86 43" fill="none" xmlns="http://www.w3.org/2000/svg">
<path d="M0 0H74L86 21.5L74 43H0V0Z" fill="#0C2F75"/>
<path d="M18.484 17.6V26H17.284V22.256H12.46V26H11.26V17.6H12.46V21.212H17.284V17.6H18.484ZM26.7583 19.64V26H25.6663V25.04C25.4343 25.368 25.1263 25.624 24.7423 25.808C24.3663 25.984 23.9543 26.072 23.5063 26.072C22.6583 26.072 21.9903 25.84 21.5023 25.376C21.0143 24.904 20.7703 24.212 20.7703 23.3V19.64H21.9223V23.168C21.9223 23.784 22.0703 24.252 22.3663 24.572C22.6623 24.884 23.0863 25.04 23.6383 25.04C24.2463 25.04 24.7263 24.856 25.0783 24.488C25.4303 24.12 25.6063 23.6 25.6063 22.928V19.64H26.7583ZM34.9514 17.096V26H33.8474V24.992C33.5914 25.344 33.2674 25.612 32.8754 25.796C32.4834 25.98 32.0514 26.072 31.5794 26.072C30.9634 26.072 30.4114 25.936 29.9234 25.664C29.4354 25.392 29.0514 25.012 28.7714 24.524C28.4994 24.028 28.3634 23.46 28.3634 22.82C28.3634 22.18 28.4994 21.616 28.7714 21.128C29.0514 20.64 29.4354 20.26 29.9234 19.988C30.4114 19.716 30.9634 19.58 31.5794 19.58C32.0354 19.58 32.4554 19.668 32.8394 19.844C33.2234 20.012 33.5434 20.264 33.7994 20.6V17.096H34.9514ZM31.6754 25.064C32.0754 25.064 32.4394 24.972 32.7674 24.788C33.0954 24.596 33.3514 24.332 33.5354 23.996C33.7194 23.652 33.8114 23.26 33.8114 22.82C33.8114 22.38 33.7194 21.992 33.5354 21.656C33.3514 21.312 33.0954 21.048 32.7674 20.864C32.4394 20.68 32.0754 20.588 31.6754 20.588C31.2674 20.588 30.8994 20.68 30.5714 20.864C30.2514 21.048 29.9954 21.312 29.8034 21.656C29.6194 21.992 29.5274 22.38 29.5274 22.82C29.5274 23.26 29.6194 23.652 29.8034 23.996C29.9954 24.332 30.2514 24.596 30.5714 24.788C30.8994 24.972 31.2674 25.064 31.6754 25.064ZM43.0591 19.64V26H41.9671V25.04C41.7351 25.368 41.4271 25.624 41.0431 25.808C40.6671 25.984 40.2551 26.072 39.8071 26.072C38.9591 26.072 38.2911 25.84 37.8031 25.376C37.3151 24.904 37.0711 24.212 37.0711 23.3V19.64H38.2231V23.168C38.2231 23.784 38.3711 24.252 38.6671 24.572C38.9631 24.884 39.3871 25.04 39.9391 25.04C40.5471 25.04 41.0271 24.856 41.3791 24.488C41.7311 24.12 41.9071 23.6 41.9071 22.928V19.64H43.0591ZM51.2522 17.096V26H50.1482V24.992C49.8922 25.344 49.5682 25.612 49.1762 25.796C48.7842 25.98 48.3522 26.072 47.8802 26.072C47.2642 26.072 46.7122 25.936 46.2242 25.664C45.7362 25.392 45.3522 25.012 45.0722 24.524C44.8002 24.028 44.6642 23.46 44.6642 22.82C44.6642 22.18 44.8002 21.616 45.0722 21.128C45.3522 20.64 45.7362 20.26 46.2242 19.988C46.7122 19.716 47.2642 19.58 47.8802 19.58C48.3362 19.58 48.7562 19.668 49.1402 19.844C49.5242 20.012 49.8442 20.264 50.1002 20.6V17.096H51.2522ZM47.9762 25.064C48.3762 25.064 48.7402 24.972 49.0682 24.788C49.3962 24.596 49.6522 24.332 49.8362 23.996C50.0202 23.652 50.1122 23.26 50.1122 22.82C50.1122 22.38 50.0202 21.992 49.8362 21.656C49.6522 21.312 49.3962 21.048 49.0682 20.864C48.7402 20.68 48.3762 20.588 47.9762 20.588C47.5682 20.588 47.2002 20.68 46.8722 20.864C46.5522 21.048 46.2962 21.312 46.1042 21.656C45.9202 21.992 45.8282 22.38 45.8282 22.82C45.8282 23.26 45.9202 23.652 46.1042 23.996C46.2962 24.332 46.5522 24.596 46.8722 24.788C47.2002 24.972 47.5682 25.064 47.9762 25.064ZM53.4318 17.096H54.5838V26H53.4318V17.096ZM59.0994 19.58C59.9794 19.58 60.6514 19.796 61.1154 20.228C61.5874 20.66 61.8234 21.304 61.8234 22.16V26H60.7314V25.16C60.5394 25.456 60.2634 25.684 59.9034 25.844C59.5514 25.996 59.1314 26.072 58.6434 26.072C57.9314 26.072 57.3594 25.9 56.9274 25.556C56.5034 25.212 56.2914 24.76 56.2914 24.2C56.2914 23.64 56.4954 23.192 56.9034 22.856C57.3114 22.512 57.9594 22.34 58.8474 22.34H60.6714V22.112C60.6714 21.616 60.5274 21.236 60.2394 20.972C59.9514 20.708 59.5274 20.576 58.9674 20.576C58.5914 20.576 58.2234 20.64 57.8634 20.768C57.5034 20.888 57.1994 21.052 56.9514 21.26L56.4714 20.396C56.7994 20.132 57.1914 19.932 57.6474 19.796C58.1034 19.652 58.5874 19.58 59.0994 19.58ZM58.8354 25.184C59.2754 25.184 59.6554 25.088 59.9754 24.896C60.2954 24.696 60.5274 24.416 60.6714 24.056V23.168H58.8954C57.9194 23.168 57.4314 23.496 57.4314 24.152C57.4314 24.472 57.5554 24.724 57.8034 24.908C58.0514 25.092 58.3954 25.184 58.8354 25.184ZM65.0593 20.708C65.2593 20.34 65.5553 20.06 65.9473 19.868C66.3393 19.676 66.8153 19.58 67.3753 19.58V20.696C67.3113 20.688 67.2233 20.684 67.1113 20.684C66.4873 20.684 65.9953 20.872 65.6353 21.248C65.2833 21.616 65.1073 22.144 65.1073 22.832V26H63.9553V19.64H65.0593V20.708Z" fill="white"/>
</svg>
